<svg xmlns="http://www.w3.org/2000/svg" xmlns:xlink="http://www.w3.org/1999/xlink" width="500" zoomAndPan="magnify" viewBox="0 0 375 374.999991" height="500" preserveAspectRatio="xMidYMid meet" version="1.2"><defs><clipPath id="6cfa0ece76"><path d="M 19.0625 19.0625 L 355.9375 19.0625 L 355.9375 355.9375 L 19.0625 355.9375 Z M 19.0625 19.0625 "/></clipPath><clipPath id="b8e9de1ebb"><path d="M 187.5 19.0625 C 94.472656 19.0625 19.0625 94.472656 19.0625 187.5 C 19.0625 280.527344 94.472656 355.9375 187.5 355.9375 C 280.527344 355.9375 355.9375 280.527344 355.9375 187.5 C 355.9375 94.472656 280.527344 19.0625 187.5 19.0625 Z M 187.5 19.0625 "/></clipPath><clipPath id="3759aca0c9"><path d="M 70.722656 138.488281 L 144.308594 138.488281 L 144.308594 212.070312 L 70.722656 212.070312 Z M 70.722656 138.488281 "/></clipPath><clipPath id="4584852104"><path d="M 107.515625 138.488281 C 87.195312 138.488281 70.722656 154.960938 70.722656 175.277344 C 70.722656 195.597656 87.195312 212.070312 107.515625 212.070312 C 127.835938 212.070312 144.308594 195.597656 144.308594 175.277344 C 144.308594 154.960938 127.835938 138.488281 107.515625 138.488281 Z M 107.515625 138.488281 "/></clipPath><clipPath id="2680f14371"><path d="M 97.203125 158.804688 L 182.652344 158.804688 L 182.652344 206.566406 L 97.203125 206.566406 Z M 97.203125 158.804688 "/></clipPath><clipPath id="a793eaf529"><path d="M 97.203125 182.683594 C 97.203125 195.875 116.320312 206.566406 139.898438 206.566406 C 163.476562 206.566406 182.589844 195.875 182.589844 182.683594 C 182.589844 169.496094 163.476562 158.804688 139.898438 158.804688 C 116.320312 158.804688 97.203125 169.496094 97.203125 182.683594 Z M 97.203125 182.683594 "/></clipPath><clipPath id="1d4bf6e456"><path d="M 78.023438 143.882812 L 137.015625 143.882812 L 137.015625 206.5625 L 78.023438 206.5625 Z M 78.023438 143.882812 "/></clipPath><clipPath id="2b01efe835"><path d="M 78.023438 175.269531 C 78.023438 192.550781 91.226562 206.5625 107.519531 206.5625 C 123.808594 206.5625 137.015625 192.550781 137.015625 175.269531 C 137.015625 157.988281 123.808594 143.976562 107.519531 143.976562 C 91.226562 143.976562 78.023438 157.988281 78.023438 175.269531 Z M 78.023438 175.269531 "/></clipPath></defs><g id="bd3ea6abd7"><rect x="0" width="375" y="0" height="374.999991" style="fill:#ffffff;fill-opacity:1;stroke:none;"/><rect x="0" width="375" y="0" height="374.999991" style="fill:#ffffff;fill-opacity:1;stroke:none;"/><g clip-rule="nonzero" clip-path="url(#6cfa0ece76)"><g clip-rule="nonzero" clip-path="url(#b8e9de1ebb)"><path style=" stroke:none;fill-rule:nonzero;fill:#1d61e7;fill-opacity:1;" d="M 19.0625 19.0625 L 355.9375 19.0625 L 355.9375 355.9375 L 19.0625 355.9375 Z M 19.0625 19.0625 "/></g></g><g clip-rule="nonzero" clip-path="url(#3759aca0c9)"><g clip-rule="nonzero" clip-path="url(#4584852104)"><path style=" stroke:none;fill-rule:nonzero;fill:#ffffff;fill-opacity:1;" d="M 70.722656 138.488281 L 144.308594 138.488281 L 144.308594 212.070312 L 70.722656 212.070312 Z M 70.722656 138.488281 "/></g></g><path style="fill:none;stroke-width:11;stroke-linecap:round;stroke-linejoin:miter;stroke:#ffffff;stroke-opacity:1;stroke-miterlimit:4;" d="M 5.499882 5.497786 L 55.137764 5.501806 " transform="matrix(-0.565699,-0.492427,0.492427,-0.565699,140.095426,236.509789)"/><g clip-rule="nonzero" clip-path="url(#2680f14371)"><g clip-rule="nonzero" clip-path="url(#a793eaf529)"><path style=" stroke:none;fill-rule:nonzero;fill:#1d61e7;fill-opacity:1;" d="M 97.203125 206.566406 L 97.203125 158.804688 L 182.652344 158.804688 L 182.652344 206.566406 Z M 97.203125 206.566406 "/></g></g><g clip-rule="nonzero" clip-path="url(#1d4bf6e456)"><g clip-rule="nonzero" clip-path="url(#2b01efe835)"><path style=" stroke:none;fill-rule:nonzero;fill:#1d61e7;fill-opacity:1;" d="M 78.023438 206.5625 L 78.023438 143.882812 L 137.015625 143.882812 L 137.015625 206.5625 Z M 78.023438 206.5625 "/></g></g><g style="fill:#ffffff;fill-opacity:1;"><g transform="translate(89.39937, 198.075558)"><path style="stroke:none" d="M 18.65625 0.984375 C 15.863281 0.984375 13.394531 0.488281 11.25 -0.5 C 9.101562 -1.488281 7.429688 -3.054688 6.234375 -5.203125 C 5.046875 -7.347656 4.453125 -10.179688 4.453125 -13.703125 L 4.453125 -32.6875 C 4.453125 -34.082031 3.738281 -35 2.3125 -35.4375 L 1.09375 -35.765625 L 1.09375 -36.328125 L 16.34375 -36.328125 L 16.34375 -35.765625 L 14.75 -35.328125 C 13.394531 -34.992188 12.71875 -34.078125 12.71875 -32.578125 L 12.71875 -12.265625 C 12.71875 -8.859375 13.429688 -6.335938 14.859375 -4.703125 C 16.285156 -3.066406 18.335938 -2.25 21.015625 -2.25 C 23.804688 -2.25 26.019531 -3.109375 27.65625 -4.828125 C 29.289062 -6.554688 30.109375 -9 30.109375 -12.15625 L 30.109375 -32.359375 C 30.109375 -33.085938 29.988281 -33.738281 29.75 -34.3125 C 29.507812 -34.882812 29.019531 -35.257812 28.28125 -35.4375 L 26.90625 -35.765625 L 26.90625 -36.328125 L 34.609375 -36.328125 L 34.609375 -35.765625 L 33.125 -35.390625 C 32.425781 -35.242188 31.96875 -34.894531 31.75 -34.34375 C 31.53125 -33.789062 31.421875 -33.144531 31.421875 -32.40625 L 31.421875 -12.265625 C 31.421875 -9.585938 30.890625 -7.25 29.828125 -5.25 C 28.765625 -3.25 27.273438 -1.707031 25.359375 -0.625 C 23.453125 0.445312 21.21875 0.984375 18.65625 0.984375 Z M 18.65625 0.984375 "/></g></g><g style="fill:#ffffff;fill-opacity:1;"><g transform="translate(125.118117, 198.075558)"><path style="stroke:none" d=""/></g></g><g style="fill:#ffffff;fill-opacity:1;"><g transform="translate(137.114924, 198.075558)"><path style="stroke:none" d=""/></g></g><g style="fill:#ffffff;fill-opacity:1;"><g transform="translate(149.11173, 198.075558)"><path style="stroke:none" d=""/></g></g><g style="fill:#ffffff;fill-opacity:1;"><g transform="translate(161.108536, 198.075558)"><path style="stroke:none" d=""/></g></g><g style="fill:#ffffff;fill-opacity:1;"><g transform="translate(131.687912, 198.075558)"><path style="stroke:none" d="M 1.921875 0 L 1.921875 -0.546875 L 3.734375 -1.09375 C 4.398438 -1.28125 4.878906 -1.640625 5.171875 -2.171875 C 5.460938 -2.703125 5.609375 -3.335938 5.609375 -4.078125 L 5.609375 -30.546875 C 5.210938 -31.421875 4.894531 -32.078125 4.65625 -32.515625 C 4.414062 -32.960938 4.144531 -33.34375 3.84375 -33.65625 C 3.550781 -33.96875 3.148438 -34.359375 2.640625 -34.828125 L 1.703125 -35.765625 L 1.703125 -36.328125 L 11.453125 -36.328125 L 29.71875 -11.390625 L 29.71875 -32.140625 C 29.71875 -32.867188 29.597656 -33.523438 29.359375 -34.109375 C 29.117188 -34.703125 28.632812 -35.09375 27.90625 -35.28125 L 26.078125 -35.765625 L 26.078125 -36.328125 L 33.953125 -36.328125 L 33.953125 -35.765625 L 32.46875 -35.28125 C 31.8125 -35.050781 31.40625 -34.660156 31.25 -34.109375 C 31.101562 -33.566406 31.03125 -32.925781 31.03125 -32.1875 L 31.03125 0.171875 L 27.953125 0.171875 L 6.9375 -28.71875 L 6.9375 -4.078125 C 6.9375 -3.335938 7.046875 -2.710938 7.265625 -2.203125 C 7.484375 -1.691406 7.941406 -1.320312 8.640625 -1.09375 L 10.296875 -0.546875 L 10.296875 0 Z M 1.921875 0 "/></g></g><g style="fill:#ffffff;fill-opacity:1;"><g transform="translate(167.623307, 198.075558)"><path style="stroke:none" d="M 9.078125 0 L 9.078125 -0.546875 L 10.734375 -0.984375 C 12.015625 -1.359375 12.65625 -2.273438 12.65625 -3.734375 L 12.65625 -14.203125 L 3.578125 -32.6875 C 3.242188 -33.425781 2.9375 -33.976562 2.65625 -34.34375 C 2.382812 -34.707031 1.976562 -35.019531 1.4375 -35.28125 L 0.4375 -35.765625 L 0.4375 -36.328125 L 15.1875 -36.328125 L 15.1875 -35.765625 L 14.203125 -35.390625 C 13.390625 -35.054688 12.945312 -34.601562 12.875 -34.03125 C 12.800781 -33.46875 12.945312 -32.765625 13.3125 -31.921875 L 19.8125 -17.5 L 27.078125 -32.46875 C 27.367188 -33.050781 27.484375 -33.65625 27.421875 -34.28125 C 27.367188 -34.90625 26.976562 -35.3125 26.25 -35.5 L 25.484375 -35.765625 L 25.484375 -36.328125 L 32.078125 -36.328125 L 32.078125 -35.765625 L 31.03125 -35.390625 C 30.332031 -35.128906 29.816406 -34.769531 29.484375 -34.3125 C 29.160156 -33.851562 28.832031 -33.273438 28.5 -32.578125 L 20.96875 -16.734375 L 20.96875 -3.734375 C 20.96875 -3.003906 21.101562 -2.410156 21.375 -1.953125 C 21.65625 -1.492188 22.144531 -1.171875 22.84375 -0.984375 L 24.546875 -0.546875 L 24.546875 0 Z M 9.078125 0 "/></g></g><g style="fill:#ffffff;fill-opacity:1;"><g transform="translate(200.091739, 198.075558)"><path style="stroke:none" d="M 1.203125 0 L 1.203125 -0.546875 L 2.359375 -0.984375 C 3.128906 -1.285156 3.613281 -1.644531 3.8125 -2.0625 C 4.019531 -2.488281 4.125 -3.066406 4.125 -3.796875 L 4.125 -32.53125 C 4.125 -33.257812 4.015625 -33.84375 3.796875 -34.28125 C 3.578125 -34.71875 3.097656 -35.066406 2.359375 -35.328125 L 1.203125 -35.765625 L 1.203125 -36.328125 L 15.25 -36.328125 L 15.25 -35.765625 L 14.25 -35.328125 C 13.550781 -35.066406 13.070312 -34.707031 12.8125 -34.25 C 12.5625 -33.789062 12.4375 -33.195312 12.4375 -32.46875 L 12.4375 -1.09375 L 20.90625 -1.09375 C 22.269531 -1.09375 23.269531 -1.421875 23.90625 -2.078125 C 24.550781 -2.742188 25.164062 -3.703125 25.75 -4.953125 L 27.90625 -9.578125 L 28.453125 -9.578125 L 27.953125 0 Z M 1.203125 0 "/></g></g><g style="fill:#ffffff;fill-opacity:1;"><g transform="translate(229.808611, 198.075558)"><path style="stroke:none" d="M 15.03125 0.828125 C 12.238281 0.828125 9.8125 0.25 7.75 -0.90625 C 5.695312 -2.0625 4.113281 -3.703125 3 -5.828125 C 1.882812 -7.960938 1.328125 -10.457031 1.328125 -13.3125 C 1.328125 -16.175781 1.921875 -18.65625 3.109375 -20.75 C 4.296875 -22.84375 5.925781 -24.457031 8 -25.59375 C 10.070312 -26.726562 12.414062 -27.296875 15.03125 -27.296875 C 17.632812 -27.296875 19.960938 -26.734375 22.015625 -25.609375 C 24.066406 -24.492188 25.6875 -22.890625 26.875 -20.796875 C 28.070312 -18.710938 28.671875 -16.21875 28.671875 -13.3125 C 28.671875 -10.414062 28.109375 -7.910156 26.984375 -5.796875 C 25.867188 -3.691406 24.289062 -2.0625 22.25 -0.90625 C 20.21875 0.25 17.8125 0.828125 15.03125 0.828125 Z M 15.03125 -0.28125 C 16.3125 -0.28125 17.335938 -0.644531 18.109375 -1.375 C 18.878906 -2.101562 19.4375 -3.40625 19.78125 -5.28125 C 20.132812 -7.15625 20.3125 -9.796875 20.3125 -13.203125 C 20.3125 -16.648438 20.132812 -19.3125 19.78125 -21.1875 C 19.4375 -23.0625 18.878906 -24.363281 18.109375 -25.09375 C 17.335938 -25.820312 16.3125 -26.1875 15.03125 -26.1875 C 13.738281 -26.1875 12.695312 -25.820312 11.90625 -25.09375 C 11.125 -24.363281 10.554688 -23.0625 10.203125 -21.1875 C 9.859375 -19.3125 9.6875 -16.648438 9.6875 -13.203125 C 9.6875 -9.796875 9.859375 -7.15625 10.203125 -5.28125 C 10.554688 -3.40625 11.125 -2.101562 11.90625 -1.375 C 12.695312 -0.644531 13.738281 -0.28125 15.03125 -0.28125 Z M 15.03125 -0.28125 "/></g></g><g style="fill:#ffffff;fill-opacity:1;"><g transform="translate(259.800632, 198.075558)"><path style="stroke:none" d="M 10.625 0.828125 C 8.820312 0.828125 7.203125 0.613281 5.765625 0.1875 C 4.335938 -0.226562 3.019531 -0.75 1.8125 -1.375 L 1.875 -7.921875 L 2.421875 -7.921875 L 4.296875 -4.625 C 5.097656 -3.15625 5.984375 -2.0625 6.953125 -1.34375 C 7.929688 -0.632812 9.171875 -0.28125 10.671875 -0.28125 C 12.429688 -0.28125 13.851562 -0.671875 14.9375 -1.453125 C 16.019531 -2.242188 16.5625 -3.300781 16.5625 -4.625 C 16.5625 -5.832031 16.175781 -6.820312 15.40625 -7.59375 C 14.632812 -8.363281 13.203125 -9.0625 11.109375 -9.6875 L 8.8125 -10.40625 C 6.570312 -11.0625 4.804688 -12.085938 3.515625 -13.484375 C 2.234375 -14.878906 1.59375 -16.582031 1.59375 -18.59375 C 1.59375 -21.019531 2.546875 -23.078125 4.453125 -24.765625 C 6.359375 -26.453125 9.09375 -27.296875 12.65625 -27.296875 C 14.082031 -27.296875 15.425781 -27.140625 16.6875 -26.828125 C 17.957031 -26.515625 19.179688 -26.046875 20.359375 -25.421875 L 20.03125 -19.484375 L 19.484375 -19.484375 L 17.5625 -22.890625 C 16.863281 -24.097656 16.171875 -24.945312 15.484375 -25.4375 C 14.804688 -25.9375 13.789062 -26.1875 12.4375 -26.1875 C 11.1875 -26.1875 10.007812 -25.835938 8.90625 -25.140625 C 7.8125 -24.453125 7.265625 -23.460938 7.265625 -22.171875 C 7.265625 -20.929688 7.734375 -19.941406 8.671875 -19.203125 C 9.609375 -18.472656 10.992188 -17.796875 12.828125 -17.171875 L 15.296875 -16.453125 C 17.941406 -15.648438 19.832031 -14.539062 20.96875 -13.125 C 22.101562 -11.707031 22.671875 -10.007812 22.671875 -8.03125 C 22.671875 -5.351562 21.613281 -3.207031 19.5 -1.59375 C 17.394531 0.0195312 14.4375 0.828125 10.625 0.828125 Z M 10.625 0.828125 "/></g></g><g style="fill:#ffffff;fill-opacity:1;"><g transform="translate(283.794257, 198.075558)"><path style="stroke:none" d="M 11.5625 0.828125 C 9.207031 0.828125 7.378906 0.238281 6.078125 -0.9375 C 4.773438 -2.113281 4.125 -3.984375 4.125 -6.546875 L 4.125 -25.375 L 0.328125 -25.375 L 0.328125 -25.921875 L 1.65625 -26.140625 C 2.789062 -26.398438 3.769531 -26.765625 4.59375 -27.234375 C 5.414062 -27.710938 6.234375 -28.359375 7.046875 -29.171875 L 11.5625 -34.171875 L 12.109375 -34.171875 L 11.9375 -26.46875 L 18.109375 -26.46875 L 18.109375 -25.375 L 11.890625 -25.375 L 11.890625 -5.5625 C 11.890625 -4.269531 12.171875 -3.296875 12.734375 -2.640625 C 13.304688 -1.984375 14.03125 -1.65625 14.90625 -1.65625 C 15.675781 -1.65625 16.351562 -1.847656 16.9375 -2.234375 C 17.53125 -2.617188 18.117188 -3.140625 18.703125 -3.796875 L 19.265625 -3.25 C 18.523438 -2 17.515625 -1.003906 16.234375 -0.265625 C 14.953125 0.460938 13.394531 0.828125 11.5625 0.828125 Z M 11.5625 0.828125 "/></g></g><g style="fill:#ffffff;fill-opacity:1;"><g transform="translate(303.660561, 198.075558)"><path style="stroke:none" d=""/></g></g><g style="fill:#ffffff;fill-opacity:1;"><g transform="translate(315.657367, 198.075558)"><path style="stroke:none" d=""/></g></g><g style="fill:#ffffff;fill-opacity:1;"><g transform="translate(327.654173, 198.075558)"><path style="stroke:none" d=""/></g></g><g style="fill:#ffffff;fill-opacity:1;"><g transform="translate(339.650979, 198.075558)"><path style="stroke:none" d=""/></g></g></g></svg>